<?xml version="1.0" encoding="UTF-8"?>
<!DOCTYPE svg PUBLIC "-//W3C//DTD SVG 1.1//EN" "http://www.w3.org/Graphics/SVG/1.1/DTD/svg11.dtd">
<!-- Creator: CorelDRAW 2020 (64-Bit) -->
<svg xmlns="http://www.w3.org/2000/svg" xml:space="preserve" width="162.298mm" height="89.906mm" version="1.1" style="shape-rendering:geometricPrecision; text-rendering:geometricPrecision; image-rendering:optimizeQuality; fill-rule:evenodd; clip-rule:evenodd"
viewBox="0 0 6684.24 3702.78"
 xmlns:xlink="http://www.w3.org/1999/xlink"
 xmlns:xodm="http://www.corel.com/coreldraw/odm/2003">
 <defs>
  <style type="text/css">
   <![CDATA[
    .fil1 {fill:#2D2C2B}
    .fil0 {fill:#2E2D2C}
    .fil3 {fill:#2B2A29;fill-rule:nonzero}
    .fil2 {fill:#00DFFF;fill-rule:nonzero}
   ]]>
  </style>
 </defs>
 <g id="Слой_x0020_1">
  <metadata id="CorelCorpID_0Corel-Layer"/>
  <g id="_1627589119168">
   <path class="fil0" d="M3443.26 260.82l-63.34 2.31c10.67,40.28 22.94,38.91 63.52,38.31 44.72,-0.66 160.22,3.06 197.23,32.29 14.98,11.83 51.18,38.11 59.06,57.99 -50.02,5.24 -41.96,-21.79 -167.55,-4.55 -50.53,6.94 -31.52,-9.76 -66.48,-1.26 -23.24,5.65 -51.99,13.68 -75.86,18.22 -146.56,27.89 -90.33,-76.88 -250.26,37.17 -11.35,8.09 -21.43,11.33 -32.89,18.33 -172.71,105.5 -63.16,141.61 -189.52,192.76 -37.55,15.21 -32.91,11.94 -53.89,41.24 -14.5,20.25 -30.32,33.63 -42.83,52.39 -28.42,42.64 2.27,15.93 -54.27,41.5 -52.23,23.63 -30.34,4.51 -77.77,10.82 -28.7,41.84 -19.74,42.88 -81.42,62.49l-7.78 26.13c-8.83,15.26 -13.69,10.09 -25.97,23.02 -40.21,42.35 -1.54,44.88 17.3,55.81l-3.9 44.76c25.27,0.73 10.86,-3.82 27.68,11.34 26.05,-35.16 18.6,-57.27 25.05,-107.55 78.45,-59.88 99.56,-6.12 164.83,16.02 62.21,21.09 88.19,-75.69 102.04,-135.83l117.23 77.17c20.24,19.13 3.67,14.6 38.08,25.26 20.47,-16.78 36.71,-54.78 35.14,-92.86 -2.78,-67.63 -75.67,-12.6 -41.95,-131.93 6.7,-23.69 8.27,-28.26 32.67,-41.09 30.53,-16.05 80.13,-22.04 118.39,-15.96 37.09,5.9 70.66,19.78 92.56,39.83 44.01,40.28 68.17,11.66 82.81,56.29 42.25,128.74 -36.78,117.43 -57.93,203.11 1.76,1.11 4.6,0.33 5.58,2.86 3.18,8.26 17.94,6.91 27.5,11.84 -16.95,71.87 -41.59,61.35 -58.8,112.54 -13.71,40.76 -56.89,7.68 -95,12.17 -144.59,17.05 -127.46,91.58 49.85,80.29 90.9,-5.79 107.59,47.26 128.62,114.24 20.86,66.44 30.73,57.99 88.7,78.32 15.25,5.34 2.97,0.25 15.18,8.04 0.98,0.63 23.73,17.43 29.66,22.1l59.83 42.66c2.05,34.6 -3.59,62.55 -5.21,84.89 60.63,7.78 6.31,-10.49 56.94,-9.85 24.16,27.76 21.46,47.12 33.35,83.4 -25.93,-13.44 -31.74,-1.64 -45.31,12.43l33.96 94.02c66.34,-4.73 14.36,-58.47 74.39,-64.83 33.8,-3.58 27.86,12.1 56.24,5.12 23.38,-5.76 21.49,-23.28 30.67,-41.51 12.35,34.37 -33.97,68.2 -10.64,118.58 30.19,65.17 46.56,66.79 106.33,26.15l34.03 -31.36c17.52,-23.64 29.1,-29.05 50.22,-37.68 27.8,-11.37 90.04,-43.74 104.73,-70.34 -27.88,-26.07 -21.21,3.35 -37.09,-31.03 21.42,-9.97 32.24,-15.9 66.31,-15.31 13.9,-27.1 86.99,-93.75 60.93,-124.06 -12.67,-6.8 -56.16,-13.83 -71.46,-16.3 -39.46,-6.38 -26.02,14.48 -74.58,8.7 -6.41,-11.07 -14.65,-39.48 -26.8,-45.47 -19.6,-9.65 -41.81,3.67 -74.71,-6.05 12.36,-49.94 69.26,-23.3 108.16,-20.64 21.18,-42.1 30.81,-58.66 67.68,-85.45 36.12,-26.25 33.13,-40.62 74.7,-51.62 2.2,-0.58 8.27,-2.22 10.12,-2.76 0.96,-0.28 1.31,-2.48 12.46,-4.12 25.39,33.79 31.32,75.62 42.4,120.03 6.75,27.04 8.06,13.95 18.94,38.9l-27.78 24.25c15.84,-4.98 39.2,31.96 54.54,38.11 6.38,2.56 13.35,3.61 23.4,8.46 18.98,-25.64 38.1,-42.18 14.11,-71.16 39.92,-14.3 13.02,-15.86 45.87,-27.8l11.77 24.2c11.44,19.46 -0.72,8.38 17.56,19.79l21.26 -54.25 -18.27 -16.34c-0.96,-1.12 -2.17,-3.01 -3.14,-4.16 -12.51,-14.95 3.34,1.53 -6.26,-8.46 -13.88,-14.43 1,-3.9 -17.1,-12.1 -42.84,-19.41 24.4,8.88 -10.96,-3.53 -18.92,-6.64 -2.73,4.12 -16.24,-5.46 32.07,-24.08 -1.75,-32.28 29.97,-64.48 32.05,-32.53 30.61,-9.93 30.41,-73.65 37.21,-13.46 51.19,-35.55 82.82,-52.71 -2.69,-105.36 49.09,-68.22 70.8,-70.75 10.75,-83.74 -6.2,-260.18 -53.15,-326.25 -32,-45.03 0.77,-80.59 -36.8,-98.18l-10.55 38.51c-2.57,15.65 -5.92,31.02 -3.7,43.5 6.47,36.46 26.2,19.3 0.36,74.68 -52.19,0.92 -41.56,-25.93 -74.04,-51.04 -32.56,-25.18 -55.21,-21.04 -86.82,-38.23 -55.22,-30.02 14.44,-27.19 -73.92,-49.01 -77.72,-19.2 -128.3,-124.27 -201.71,-174.13 -44,-29.88 -92.46,-33.31 -140.65,-51.78 -35.79,-13.72 0.95,-10.76 -32.15,-28.57 -30.06,11.01 -23.1,11.89 -43.99,31.88l-13.08 -22.69c-29.58,-29.23 -36.21,2.55 -61.57,-48.07 -28.09,-56.07 -32.77,-51 -93.98,-42.96 -14.09,-21.43 -9.54,-44.57 -95.36,-17.07 -73.34,23.5 -40.42,2.41 -95.15,-6.35l-14.3 43.33zm28.19 -15.37l-11.66 32.08c44.55,5.88 139.71,8.27 169.85,23.46 42.08,21.21 63.16,56.86 113.72,82.94 -39.37,44.31 -58.28,29.53 -112.35,18.03 -46.75,-9.94 -72.05,9.2 -122.63,9.51 -31.03,0.19 -16.92,-6.77 -60.37,1.07 -24.98,4.51 -41.9,10.06 -66.2,14.51 -25.75,4.71 -52.26,6.33 -78.14,2.27 -92.39,-14.52 -3.83,-59.1 -186,48.98 -25.42,15.08 -93.63,68.59 -103.04,101.22 -23.2,80.44 -35.27,63 -102.55,96.8 -36.88,18.52 -70.24,81.19 -87.6,118.09 -61.37,10.52 -105.9,30.59 -157.04,63.09 -24.76,15.74 -28.3,8.03 -37.4,32.57 30.69,-11 57.4,-31.07 99.82,-19.18 24.97,7 69.94,37.25 84.92,39.13 58.35,7.31 53.02,-107.7 91.34,-148.44 30.28,13.26 7.99,8.64 31.93,26.81 18.67,14.16 27.47,10.18 46.56,19.65 21.15,10.49 50.44,45.05 69.61,63.01 17.52,-20.42 22.06,-53.74 20.3,-81.84 -86.73,-37.71 -44.09,-140.8 -19.69,-160.85 63.86,-52.48 197.12,-44.96 260.8,8.62 27.29,22.97 10.2,20.69 68.51,22.62 11.26,22.58 26.64,40.23 27.68,62.63 0.07,1.45 -4.07,22.79 -4.84,31.37l27.85 10.94c-37.45,50.49 -28.32,67.97 -73.82,113.13l12.57 3.88c6.6,1.42 3.46,-2.48 16.91,2.55 3,39.34 -4.23,22.29 -8.39,53.88l-9.29 31.19c-16.35,24.59 -34.22,38.27 -46.05,64.65 -11.44,25.51 -12.41,59.27 -91.9,44.57 -34.76,-6.43 -11.52,-4.67 -43.87,1.71 -32.47,6.4 -23.01,-3.63 -44.5,15.23 -1.29,64.91 167.4,-41.86 226.68,79.94 29.57,60.75 32.85,99.36 62.11,111.42l15.29 5.07c25.99,10 84.54,2.05 102.21,13.15 19.03,26.48 -0.93,13.99 22.56,28.57l-25.62 32.12c38.5,8.9 39.13,-4.47 47.36,41.63 9.97,55.89 7.91,28.05 42.6,52.3 34.85,24.37 37.84,85.38 49.77,124.43 50.5,-8.91 40.92,-19.07 75.95,-39.55l13.1 3.31c-1.72,-12.2 -7.52,-23.68 -12.27,-31.57 -15.89,-26.37 -27.47,-24.67 -31.91,-67.8 33.25,17.51 82.32,68.56 95.01,108.71 10.44,33.01 -8.25,51.85 -13.33,79.35 -7.69,41.68 10.44,36.76 20.13,79.75 25.55,-2.62 32.13,-4.51 41.02,-22.73 5.06,-10.38 3.94,-2.55 4.31,-20.41 0.05,-2.52 -3.53,-21.67 -4.09,-28.53 29.39,4.61 22.85,6.1 39.92,24.79 42.82,-61.36 45.21,-45.21 93.99,-67.31 18.28,-8.28 22.22,-12.55 41.38,-19.16 -26.16,-50.97 -32.78,-56.11 41.93,-81.84 42.2,-14.53 59.62,-46.07 70.01,-90.08 -22.4,-0.35 -47.54,-7.33 -61.99,-7.16 -54.67,0.65 -67.71,38.61 -102.6,-40.03 -41.9,-0.96 -58.7,6.73 -92.1,-15.68 21.86,-66.75 59.98,-66.72 121.43,-53.03 23.46,-26.06 24.53,-48.46 53.72,-70.01 45.65,-33.72 36.98,-11.24 51.98,-71.89l33.28 6.75c33.41,-2.05 -8.83,-4.72 29.64,-14.16 34.49,14.1 52.86,39.41 62.09,81.67l33.8 -12.6c-9.09,26.31 -19.21,29.61 -20.32,59.79 11.28,6.47 9.95,1.66 35.43,-0.28l8.38 25.18c1.05,-0.59 3.52,-2.1 4.82,-2.8l29.67 -14.74 -23.06 -43.77c14.55,-20.75 9.33,-5.68 18.55,-19.61 10.3,-15.56 4.95,-9.97 10.89,-26.01 11.38,-30.76 12.65,-29.98 39.69,-39.88 -18.6,-34.83 -15.51,-27.44 1.71,-57.47 9.31,-16.23 11.53,-28.86 32.04,-31.32l20.42 2.46c19.67,-56.21 45.8,-50.24 43.92,-110.38l56.36 -1.87c13.55,-56.96 -18.2,-235.86 -43.51,-272.5 3.28,24.94 16.19,66.28 -16.96,65.26l-30.84 -5.42c-26.38,-6.99 -47.75,-24.89 -65.1,-40.5 -29.95,9.64 -5.63,11.74 -41.63,12.3 -26.47,-44.28 -53.8,-88.84 -112.5,-88.57 -35.67,0.17 -33.35,5.96 -51.16,25.25l-13.82 -38.22c-18.24,-26.19 -15.2,-7.94 -8.9,-36.95 0.28,-1.28 1.33,-3.8 2,-5.7 -50.57,-30.49 -26.66,-23 -70.93,-77.14 -55.35,-67.69 -77.74,-76.17 -133.3,-88.81 -33.83,-7.7 -67.33,-35.93 -106.72,-38.43 -42.96,-2.72 -13.88,12.97 -64.24,15.01 -15.4,-23.18 -4.63,-14.89 -8.91,-23.04 -13.43,-25.59 -33.15,-16.71 -51.48,-43.13 -29.45,-42.45 -7.97,-55.37 -71.4,-52.96 -78.1,2.98 -40.16,-34.74 -97.73,-19.3 -56.69,15.2 -34.74,22.44 -93.74,4.29zm-1971.18 1425.12c331.26,13.65 691.59,0.77 1026.07,0.77l961.05 0.56c34.43,0.33 40.02,7.42 49.98,-15.26 0.8,-28.71 -51.31,-16.6 -109.24,-16.56l-879.79 -0.02c-336.27,-0.36 -675.07,4.29 -1010.98,-0.3 -5.89,-76.34 48.46,-276.94 71.34,-351.8 95.9,-313.87 264.35,-573.53 492.27,-785.26 577.74,-536.72 1527.04,-630.25 2230.03,-191.86 78.98,49.25 185.77,127.77 240.71,184.8 172.76,179.34 233.74,232.3 368.1,483.59 75.55,141.28 196.93,464.58 207.59,657.45l-157.64 0.07c-19.64,-74.89 20.5,-69.93 -50.39,-98.74 -69.31,-28.17 -30.43,-35.84 -66.92,-82.3 -55.43,8.05 -34.82,38.81 -73.32,59.59 -15.23,-51.46 -6.35,-84.17 -68.36,-72.4 -29.14,44.22 -35.51,129.6 -30.95,195.05 -56.9,0.77 -70.6,11.08 -99.98,-24.27 -17.75,-21.36 -34.38,-41.9 -76.54,-36.22l6.75 61.12 -407.14 0.89 -2.73 28.73 1063.71 0.04c5.01,-165.91 -136.31,-540.22 -199.2,-667.97 -50.02,-101.61 -104.23,-190.49 -165.96,-274.52 -33.76,-45.95 -63.93,-80.61 -97.82,-122.51 -133.66,-165.28 -409.83,-367.09 -636.25,-457.48 -586.42,-234.13 -1231.11,-187.18 -1759.36,148.11 -80.95,51.38 -191.95,130.77 -249.82,190.65 -156.46,161.87 -272.77,281.55 -378.82,501.97 -82.73,171.95 -199.06,489.24 -196.39,684.09zm935.97 -1171.37l24.08 -65.61c-62.88,15.16 -197.68,139.83 -231.87,174.85 -59.02,60.46 -134.98,149.8 -182.93,221.06 -79.44,118.06 -227.09,377.72 -244.44,558.55l59.85 -16.18c6.87,-118.68 3.89,-49.8 39.39,-137.53 22.26,-55.03 30.81,-6.75 76.95,-98.91 27.28,-54.48 55.97,-45.33 96.33,-79.73 48.49,-41.34 -17.56,-46.12 101.25,-74.34l11.52 -46.18c17.84,18.39 31.66,36.61 64.87,12.72 118.45,-85.22 89.46,-202.41 89.51,-202.56 0.24,-0.74 87.35,-67.73 9.32,-79.31l-42.15 -8.88c18.93,-17.28 33.99,-14.41 64.47,-15.24l20 29.74c50.44,3.4 59.02,-3.99 81,-30.78 26.86,-32.73 31.7,-17.86 56.14,-61.58 22.41,-40.1 25.71,-29.02 55.26,-54.66 22.15,-19.22 32.42,-42.89 69.81,-26.14 -22.26,87.78 -157.12,128.08 -147.79,199.77 103.04,12.22 108.44,-71.07 182.42,-108.35l2.73 51.68c51.08,3.86 84.13,-9.61 115.08,-26.07 -1.07,-56.11 -64.73,-76.16 44.98,-161.11 12.33,-9.55 56.69,-45.16 45.51,-66.36 -14.04,-26.63 -76.65,-3.35 -103.11,0.84 -50.63,8.01 -64.66,-11.72 -102.31,0.17 -48.26,15.24 -20.4,25.1 -92.02,27.89 -33.36,1.29 -18.69,2.08 -44.51,11.96 -29.27,11.21 -23.45,3.12 -50.37,8.08 -55.12,10.14 -18.77,44.4 -68.94,62.2zm331.65 655.83c-93.95,-10.67 -188.51,-17.61 -279.74,1.33 17.2,38.6 23.92,19.93 48.86,44.63 -19.13,10.97 -23.29,-9.3 -61.99,-8.9 -21.73,16.19 -7.51,11.53 -26.99,26.37 -21.92,16.7 -15.08,2.22 -35.1,23.06 -19.1,19.88 -1.44,14.55 -28.03,30.52 -11.26,6.76 -29.21,10.28 -40.81,18.14 -28.27,19.14 -16.38,40.04 -49.14,68.32 -27.91,24.09 -49.07,22.97 -50.27,73.95 44.42,14.93 81.56,1.22 122.13,17 50.44,19.6 26.62,42.87 56.91,80.85 45.83,2.14 64.25,-23.13 78.73,-50.03 -9.08,-22.63 -22.47,-28.43 -24.7,-47.04 61.07,-6.74 132.56,34.41 148.1,-41.15 -30.53,-29.95 -56.63,-18.5 -107.15,-20.93 -76.89,-3.7 -82.23,-15.54 -79.56,-45.21 63.12,-42.04 144.44,35.64 205.38,2.19 56.57,-36.55 -23.07,-57.92 47.8,-95.32 15.6,34.27 -16.02,20.22 -18.39,56.98 -2.69,41.58 33.41,29.67 64.15,37.16 29.67,51.59 19.34,45.46 51.65,64.58 1.4,0.83 3.33,1.79 4.72,2.64 30.91,18.83 22.8,22.83 93.51,26.26 38.65,1.87 40.83,-6.2 42.3,-43.51 51.42,29.31 21.8,14.58 72.65,-9.72 24.91,7.66 22.39,14.57 44.46,16.45 46.95,4.01 38.58,-27.68 112.63,5.46 29.2,13.07 24.9,6.38 55.32,10.23 42.3,5.36 14.85,9 67.9,26.65 69.45,23.1 21.42,70.48 104.92,42.87 -8.46,-35.47 -0.23,-11.02 -21.27,-37.87l-70.07 -83.64c-78.53,-82.89 -162.39,-112.34 -260.08,-166.1 -19.73,-10.86 -51.1,-24.77 -65.6,-36.49 -24.58,-19.86 -8.57,-13.85 -22.11,-29.27 -21.14,-24.07 -13.46,-5.43 -36.01,-21.15 -2.56,-50.72 -1.17,-80.34 -51.14,-89.71 -21.55,-4.05 -118.57,-5.91 -134.82,-0.1 -9.64,61.72 39.88,87.1 40.86,150.49zm20.74 15.3c-32,10.01 -182.63,-7.63 -244.83,-1.07 8.27,15.69 40.02,20.24 8.98,50.19 -22.15,21.37 -45.65,-0.44 -70.42,-5.63 -26.04,34.63 -34.97,25.51 -56.21,48.64 -17.1,18.62 0.04,10.79 -24.62,26.64 -15.31,9.84 -23.07,8.18 -36.78,15.27 -32.23,16.66 -16.73,32.89 -42,59.99 -21.19,22.73 -46.39,24.11 -52.59,54.75 44.48,2.57 73.65,-5.27 113.29,13.06 49.82,23.03 23.76,38.1 54.93,76.98l35.72 -21.37c-4.83,-35.49 -21.71,-27.86 -30.23,-66.7 109.17,-26.94 121.9,22.64 153.65,-21.64 -46.46,-20.8 -97.86,5.45 -180.47,-37.27 -20.61,-121.8 146.26,-45.64 219.91,-51.11 4.23,-29.58 -23.17,-64.72 58.03,-108.27l31.84 40.97c-13.36,31.9 -21.19,22.36 -31.28,55.5 100.27,0.78 29.87,24.3 112.74,74.18 22.66,13.64 8.7,21.74 98.04,24.27 -2.03,-28.44 -8.49,-20.22 -1.44,-45.79 35.76,-14.14 34.96,1.52 58.19,14.39 49.38,-48.31 55.02,-3.41 96.03,-6.32 19.11,-1.35 33.21,-11.1 61.35,-9 36.6,2.73 29.54,12.66 55.71,21.39 25.36,8.47 35.16,1.76 59.22,6.98 26.84,5.82 21.19,13.15 43.82,21.21 32.54,11.59 19.81,-6.95 47.74,20.14 13.06,12.67 14.82,25.86 29.71,32.34 -12.53,-5.4 -73.36,-89.61 -98.32,-111.14 -39.81,-34.34 -79.78,-62.42 -135.8,-91.87 -84.3,-44.3 -127.05,-54.42 -190.3,-110.89 -9.38,-8.38 -7.33,-6.1 -17.28,-12.58 -42.98,-27.99 -17.48,-33.35 -29.35,-85.99 -42.52,-27.61 -81.6,-7.26 -138.31,-20.62 8.96,54.66 53.76,92.82 41.35,150.39zm-291.53 -710.88c-21.19,39.85 -22.49,68.52 -83.86,60.75l-1.54 -37.77c-37.47,20.47 -149.91,122.38 -177.8,153.34 -53.49,59.37 -103.46,111 -153.63,184.01 -59.83,87.08 -139.48,220.68 -181.95,324.71 -7.48,18.32 -48.55,102.74 -39.15,122.68 32.17,-39.09 5.39,-48.13 58.38,-88.47 44.34,-33.75 30.08,-53.68 65.45,-88.84 23.64,-23.49 67.97,-37.13 84.25,-62.37 21.93,-33.98 -4.67,-40.09 88.9,-65.21 30.05,-103.38 49,-40.82 69.6,-26.09 27.42,-13.62 27,-24.48 45.47,-42.41 26.77,-25.99 47.69,-63.49 50.48,-90.27 1.95,-18.7 -5.7,-28.55 -4.15,-51.34 2.5,-36.83 23.44,-32.92 40.99,-58.28 -20.18,-9.33 -40.95,-3.34 -69.68,-5.25 -3.08,-35.72 -14.5,-47.92 10.85,-60.2 9.21,-4.46 68.43,-9.94 78.9,-7.2 46.57,12.2 -0.3,38.35 50.34,28.21 11.33,-2.27 68,-56.17 83.4,-87.1 17.66,-35.45 12.41,-20.86 44,-44.1 33.77,-24.84 51.88,-66.72 116.58,-36.37 13.86,58.99 -62.02,117.49 -102.81,152.95 -13.74,11.94 -33.63,35.21 -38.51,39.54 80.2,2.91 79.74,-100.19 180.1,-116.44l1.32 59.73c26.42,3.34 49.58,-5.87 70.76,-11.79 -11.1,-59.64 -40.44,-61.68 6.91,-124.65 32.57,-43.31 61.36,-42.69 82.59,-82 -33.86,2.49 -65.96,12.55 -98.15,14.13 -49.29,2.4 -47.89,-18.24 -91.38,4.35 -51.07,26.53 -31.21,16.79 -90.02,22.94 -35.35,3.7 -0.23,9.58 -96.65,18.79zm2224.84 1173.46l62.46 5.78c20.63,-25.85 10.27,-31.92 44.07,-40.23l18.79 39.9c12.99,-17.42 5.02,-7.17 4.91,-42.24 -0.07,-22.36 -2.81,-30.53 21.25,-35.22 56.54,-11.03 31.71,51.77 29.53,74.34l61.04 2.5 -2.76 -62.02c-59.38,-41.34 -79.2,-9.73 -95.73,-96.82 -39.92,22.6 -42.3,69.46 -59.02,95.77 -57.45,-40.16 -11.1,-85.03 -51.32,-113.04 -33.67,18.65 -38.36,125.84 -33.21,171.28z"/>
   <path class="fil1" d="M3319.15 3702.77l7.33 -0.02c420.46,-1 802.15,-141.43 1069.78,-331.28 152.14,-107.93 252.62,-206.04 362.88,-341.97 63.12,-77.8 230.86,-330.98 258.94,-454.92 -97.06,0.46 -194.13,1.28 -291.19,1.93l-220.26 1.16c-72.07,-0.84 -52.52,1.14 -60.16,15.23 5.5,11.73 -1.18,17.95 52.63,16.96l471.7 -3.29c-12.3,57.17 -84.45,178.73 -113.47,227.28 -517.99,866.61 -1727.23,1095.06 -2578.9,523.11 -148.33,-99.61 -253.41,-205.35 -356.23,-326.35 -42.46,-49.96 -245.73,-337.97 -249.94,-427.03l261.12 0.35c12.84,14.09 134.75,242.72 238.41,338.04 73.42,67.51 219.66,239.83 322.5,265.27 -11.66,-75.26 -35.56,-95.55 -75.08,-131.16 -20.97,-18.9 -25.74,-30.58 -48.91,-46.59 -21,-14.51 -45.02,-24.71 -61.77,-40.81 -34.96,-33.6 -25.64,-89.48 -59.07,-139.18 -10.87,-16.15 -45.48,-131.73 -46.86,-153.69 4.4,-14.35 55.01,-36.47 27.49,-99.01 -0.91,-2.06 -3.64,-8.02 -4.75,-9.83 -12.14,-19.94 -4.26,-14.79 -72.01,-14.84l-529.01 -0.83c6.88,51.05 85.92,199.72 110.61,242.58 44.93,78 90.53,145.06 142.06,210.5 326.75,414.95 854.63,679.81 1442.15,678.41zm718.54 -535.63c-22.56,-43.05 -10.35,-54.57 -94.86,-22.99 -72.67,27.16 -15.43,-14.56 -71.42,38.85 -16.73,15.96 -11.86,4.29 -26.04,17.98 -17.99,17.36 -11.34,32.11 -21.04,52.98 -13.85,29.83 -16.38,15.79 -48.12,26.28 -74.66,24.69 18.59,65.22 29.39,77.11 -12.99,8.68 -2.59,6.92 -23.45,6.31 -85.33,-2.5 -6.02,-108.35 -146.62,-57.63 -63.1,22.77 -148.74,75.76 -208.81,54.23 10.59,-80.43 186.12,-52.31 217.3,-120.52 -11.68,-13.43 9.03,-0.01 -16.9,-14.79 -62.14,-35.41 -119.23,22.92 -191.44,25.59l17.73 -46.89c-20.7,-15.29 -111.61,-67.34 -122.8,6.94 -3.01,20 4.72,14.75 -5.28,36.24 -26.51,56.99 -142.23,38.44 -169.99,88.46 17.46,37.74 69.87,35.37 112.06,52.38 32.96,13.29 26.81,23.01 48.02,32.87 25.85,12.01 49.01,4.82 76.52,6.96 38.43,2.98 27.98,13.44 54.99,21.95 30.81,9.7 32.69,0.24 67.35,14.29 72.63,29.45 58.77,-33.5 102.44,-18.17 -21.93,29.16 -26.29,4.16 -43.74,54.23 182.65,-1.44 466.65,-123.65 589.93,-200.55 120.58,-75.23 286.28,-191.25 380.2,-302.59l32.63 -62.72c-42.1,-10.29 -48.45,-12.17 -65.93,22.13 -27.76,54.44 -8.2,25.72 -52.39,49.96 -28.46,15.61 -19.83,26.68 -56.08,39.25 -38.96,13.5 -43.52,5.89 -73.96,29.11 -73.98,56.43 -102.73,17.74 -152.6,44.93 -33.86,18.46 -7.9,34.48 -68.41,22.17 -60.52,-12.31 -32.95,-5.16 -68.7,25.67zm34.65 -9.12c-13.79,26.09 -13.73,35.63 -54.14,34.01l-17.17 -42.05 -91.71 27.4 -38.69 34.73c-30.82,23.38 -12.3,29.44 -32.47,62.82 -18.39,30.45 -33.27,14.41 -62.41,30.98 11.63,22.09 -4.95,4.73 23,18.83 19.41,9.79 14.4,3.01 33.02,17.92l-14.53 50.44c-23.64,-2.07 -36.93,-6.73 -57.7,-13.64 -60.6,-20.18 -39.88,-19.4 -46.37,-36.84 -11.68,-31.37 6.27,-41.82 -101.39,-6.56 -63.94,20.94 29.19,6.31 -110.49,42.28 -58.13,14.97 -86.81,18.78 -101.1,-35.66 36.47,-68.15 135.37,-56.4 209.29,-95.56 -36.76,-32.45 -125.9,33.9 -206.01,25.73l21.02 -61.44c-26.65,-12.64 -43.42,-17.21 -71.62,-12.01 -8.58,137.17 -80.72,85.31 -165.65,135.93 25.31,19.47 73.75,22.84 106.26,40.24 26.77,14.32 17.88,22.17 43.28,28.35 23.38,5.69 49.03,-2.01 76.67,4.92 26.88,6.73 23.35,15.78 53.23,20.98 47.35,8.24 26.82,5 63.89,17.05 56.17,18.26 16.62,-45.88 114.12,-17.66 7.9,17.97 0.4,1.27 2.22,21.41l2.22 19.34c172.51,-32.16 343.24,-98.47 474.78,-173.27 101.33,-57.62 199.12,-126.34 283.63,-200.64l80.14 -72.09c-32.7,-2.24 -37.06,30.08 -85.58,44.36 -98.94,29.11 -45.26,25.86 -97.9,49.11 -37.22,16.44 -91.86,6.56 -118.29,21.63 -47.38,27 2.03,35.06 -113.52,19.01zm-1612.7 7.85c-13.89,-40.42 -68.71,-90.27 -96.97,-113.95 -56.11,-47.01 -83.95,-28.62 -103.29,-117.33 -21.64,-99.24 -24.27,-20.05 -58.59,-162.01 -7.3,-30.19 -26.52,-56.67 -15.43,-87.99 13.04,-36.8 32.28,-12.42 31.36,-76.58l-251.24 -4.51c43,134.26 233.42,342.61 345.54,448.71 34.37,32.52 103.44,86.46 148.61,113.66zm726.27 -289.77c-10.27,1.39 -8.68,3.6 -19.7,1.35 -14.41,-2.94 -8.06,-1.95 -13.84,-6.03 -21.86,-15.42 -0.92,-15.47 -29.46,-25.66 4.43,97.66 66.62,43.54 110.04,34.76 -3.59,17.67 -29.2,65.94 -41.86,76.3 -93.48,76.52 -125.23,45.38 -160.87,192.02 -6.31,26 -18,66.1 -36.69,79.55 -39.82,28.66 -29.16,4.42 -66.56,51.91 -14.69,18.65 -26.91,47.88 -48.61,68.71 -28.71,27.57 -31.5,14.95 -61.85,54.99l-86.26 9.25c-7.59,-59.38 5.81,-27.34 -22.99,-67.43 -19.78,-27.54 -10.63,-38.33 -3.11,-75.15 12.35,-60.48 -22.34,-113.84 -6.73,-147.43 17.92,-38.54 55.49,-77.09 37.18,-135.04 -17.37,-54.96 25.24,-111.69 -16.69,-142.13 -6.67,11.78 -2.91,0.15 -5.06,17.39 -4.95,39.77 -7.8,97.9 1.22,130.86 15.99,58.42 -35.65,100.91 -43.49,130.7 -10.57,40.17 26.9,82.76 10.99,151.89 -8.48,36.83 -16.08,45.94 3.54,76.52 31.9,49.71 8.21,22.29 25.46,69.91 22.45,18.92 80.1,6.77 117.31,-0.12 21.48,-23.69 14.63,-21.81 45.17,-42.69 26.9,-18.39 26.33,-19.54 45.52,-49.91 64.5,-102.07 81.62,-70.95 101.39,-88.09l11.48 -28.79c40.43,-126.26 13.83,-125.46 124.88,-210.94 8.36,-6.43 100.33,-42.56 98.84,-130.6l-28.21 -18.1c-1.43,-0.68 -3.31,-1.62 -4.78,-2.21 -19.48,-7.88 -32.3,-5.68 -54.89,-5.17 12.19,17.33 4.33,-0.01 11.66,11.45 11.84,18.5 7.05,-8.6 6.95,17.94zm602.5 111.3c-38.6,-13.32 -13.74,-67.75 -65.9,-31.31l2.88 -50.02c-54.81,-26.61 -11.64,-30.19 -46.96,-60.05 -23.5,42.24 13.5,67.73 24.96,77.63 -4.69,72.23 -6.25,48.71 9.96,112.06 11.46,44.8 6.41,69.63 44.13,84.13 23.52,-56.33 -26.55,-92.62 -10.02,-147.91 12.4,33.22 8.5,37.23 48.29,39.23 40.09,-36.7 23.34,-109.02 -7.12,-132.64 12.03,-7.41 28.66,-6.28 38.13,-30.09l-62.08 -1.26c-8.97,60.38 63.38,83.09 23.75,140.23z"/>
   <path class="fil2" d="M2.09 2310.39c-2.78,2.87 -2.78,17.94 0,20.81 13.22,0 34.8,-2.15 74.46,-2.15 38.97,0 74.47,2.15 89.08,2.15 2.08,-2.87 3.48,-17.94 1.39,-20.81 -13.22,-1.43 -25.05,-3.59 -33.4,-5.74 -21.57,-5.74 -22.96,-13.64 -22.27,-25.83 1.39,-17.22 23.66,-77.5 37.58,-116.24 0.7,-2.15 4.18,-6.46 6.96,-6.46l123.18 0c1.39,0 5.57,2.87 6.26,5.02 12.52,32.29 33.4,92.56 41.75,123.41 2.09,6.46 1.39,13.64 -7.66,17.94 -10.44,3.59 -22.96,5.74 -38.27,7.89 -2.78,2.87 -1.39,17.94 0.7,20.81 14.62,-0.72 57.07,-2.15 91.17,-2.15 31.31,0 66.81,1.44 84.9,2.15 2.09,-2.87 4.18,-18.66 1.39,-20.81 -50.11,-6.46 -54.98,-10.05 -75.16,-58.12 -24.36,-59.55 -101.6,-286.54 -115.52,-327.32 -4.87,-13.51 -8.35,-26.43 -11.13,-37.19 -2.09,0 -9.05,0.72 -22.96,0.72 -11.83,0 -20.18,-0.72 -22.96,-0.72 -1.39,10.05 -6.26,25.83 -11.83,40.78 -15.31,45.8 -80.72,228.3 -116.22,315.12 -22.97,55.25 -31.32,60.27 -81.42,66.73zm217.82 -348.24c11.14,30.85 37.58,110.26 51.5,154.63 1.39,2.75 -0.69,5.62 -2.08,5.62 -6.96,0.72 -29.92,0.72 -46.63,0.72 -26.44,0 -48.72,0 -55.68,-0.72 -2.08,-0.72 -2.78,-2.15 -2.78,-4.91 11.83,-37.91 40.36,-118.75 52.19,-154.39 0.7,-1.68 2.78,-0.96 3.48,-0.96zm405.72 187.52c8.35,2.87 18.09,3.59 29.92,3.59 23.66,0 48.72,-5.02 73.07,-17.94 36.19,-17.94 73.77,-58.84 73.77,-124.85 0,-47.36 -20.18,-78.21 -43.15,-96.87 -27.14,-22.24 -68.89,-27.26 -92.55,-27.26 -41.06,0 -70.98,1.43 -112.74,1.43 -32.7,0 -70.98,-2.15 -82.12,-2.15 -2.08,2.15 -4.17,16.5 -1.39,20.09 13.92,1.43 25.06,3.59 34.1,5.74 19.48,4.3 23.66,12.92 25.05,38.03 1.39,22.25 0.7,71.04 0.7,153.56 0,77.49 -0.7,136.33 -2.09,160.73 -1.39,28.7 -4.87,36.59 -21.57,41.62 -8.35,2.15 -22.27,3.59 -36.88,5.74 -2.09,2.15 -2.09,17.22 0.69,20.09 16.01,0 59.15,-2.15 91.17,-2.15 27.14,0 75.85,2.15 96.04,2.15 2.09,-2.15 3.48,-17.94 0.7,-20.81 -16.7,-2.15 -31.31,-3.59 -41.75,-6.46 -19.49,-5.02 -23.66,-10.76 -25.75,-36.59 -1.39,-36.6 -0.7,-91.13 -0.7,-172.93 0,-116.24 0.7,-153.55 1.39,-170.06 0.7,-5.02 3.48,-8.61 5.56,-10.05 4.87,-2.87 22.27,-3.59 29.23,-3.59 79.33,0 111.34,48.08 111.34,114.09 0,40.9 -10.44,73.91 -42.45,92.56 -13.92,7.17 -27.84,10.76 -48.71,10.76 -10.44,0 -20.88,-0.72 -27.14,-2.15 -1.39,0.72 -2.78,3.59 -2.78,6.46 0.7,3.59 4.87,14.35 9.05,17.22zm533.07 160.73c-24.36,-2.87 -36.19,-4.3 -47.32,-7.89 -16.01,-4.3 -21.58,-12.92 -23.66,-38.03 -2.08,-36.59 -2.08,-235.36 -2.08,-340.83 0,-2.15 1.39,-5.02 3.48,-5.74 16.01,-0.72 64.72,-0.72 97.43,0 13.22,0.72 21.57,6.46 27.14,20.81 5.57,13.64 9.05,38.75 11.14,63.86 2.09,2.87 20.18,2.87 22.27,-0.72 3.48,-38.75 9.05,-96.15 16.01,-121.27 -0.7,-1.43 -4.87,-3.59 -6.96,-3.59 -20.18,9.33 -35.49,10.76 -67.51,10.76l-257.49 0c-25.75,0 -43.84,-4.3 -56.37,-10.76 -1.39,-0.72 -7.66,1.43 -7.66,2.87 -1.39,30.85 -8.35,88.26 -13.92,118.39 1.4,3.59 18.79,7.9 21.58,5.74 9.74,-27.27 18.79,-53.1 27.14,-66.73 8.35,-14.35 17.4,-19.37 29.22,-20.09 26.44,-0.72 77.95,-0.72 89.77,0 2.09,0 4.87,2.87 4.87,5.74 0,119.11 -0.7,272.67 -2.78,328.64 -0.69,33.01 -4.18,47.36 -26.44,51.66 -10.44,2.87 -27.84,5.02 -49.41,7.17 -2.09,2.87 -2.78,17.22 0,20.81 18.09,0 53.59,-2.15 105.08,-2.15 42.45,0 83.51,2.15 103.69,2.15 3.48,-1.44 4.87,-17.22 2.78,-20.81z"/>
   <path class="fil3" d="M1303.45 2311.11c-2.09,2.15 -1.39,16.5 0.7,20.09 14.61,0 47.32,-2.15 92.55,-2.15 36.19,0 63.33,1.44 90.47,2.15 3.48,-2.15 4.87,-17.22 2.78,-20.81 -20.18,-2.87 -31.32,-5.02 -41.06,-7.89 -18.09,-5.02 -21.58,-15.79 -22.27,-40.18 -0.7,-15.78 -0.7,-107.63 -0.7,-154.27 0,-61.71 0,-169.34 1.39,-185.84 0,-0.72 1.4,-4.3 2.79,-4.3 12.52,-1.44 201.81,-2.15 217.12,-0.72 2.08,0 4.87,3.59 5.57,6.46 1.39,17.94 1.39,121.27 1.39,184.41 0,48.79 0,147.1 -0.7,162.17 -0.69,19.37 -3.48,28.7 -16,33.01 -9.04,2.87 -27.14,5.74 -41.75,7.17 -2.09,2.15 -2.79,17.94 0,20.81 20.18,-0.72 55.67,-2.15 88.38,-2.15 42.45,0 74.46,2.15 93.95,2.15 2.78,-2.87 3.48,-17.94 2.09,-20.81 -20.18,-2.15 -34.8,-4.3 -44.54,-7.89 -13.22,-4.3 -17.4,-12.2 -19.48,-32.29 -2.08,-24.4 -1.39,-103.32 -1.39,-165.75 0,-85.38 0,-130.59 1.39,-154.27 1.39,-24.4 4.18,-31.57 20.18,-37.31 7.66,-3.59 20.18,-5.02 35.49,-7.89 2.09,-2.87 2.09,-16.5 0,-20.09 -18.79,0 -55.67,2.87 -86.99,2.87l-291.59 0c-34.1,0 -64.72,-2.15 -89.77,-2.15 -2.79,2.15 -2.79,17.22 -0.7,20.09 18.79,2.87 32.7,4.3 43.15,7.89 14.61,4.31 17.4,12.2 18.79,31.57 0.7,12.92 1.39,90.41 1.39,160.01 0,62.43 -0.7,122.7 -1.39,147.1 -1.39,33.01 -3.48,44.49 -23.66,50.95 -9.04,2.87 -20.88,5.02 -37.58,7.9zm674.34 -161.45c8.35,2.87 18.09,3.59 29.92,3.59 23.66,0 48.72,-5.02 73.07,-17.94 36.19,-17.94 73.77,-58.84 73.77,-124.85 0,-47.36 -20.18,-78.21 -43.15,-96.87 -27.14,-22.24 -68.89,-27.26 -92.56,-27.26 -41.05,0 -70.98,1.43 -112.74,1.43 -32.71,0 -70.98,-2.15 -82.11,-2.15 -2.09,2.15 -4.18,16.5 -1.4,20.09 13.92,1.43 25.06,3.59 34.1,5.74 19.49,4.3 23.66,12.92 25.05,38.03 1.39,22.25 0.7,71.04 0.7,153.56 0,77.49 -0.7,136.33 -2.09,160.73 -1.39,28.7 -4.87,36.59 -21.57,41.62 -8.35,2.15 -22.27,3.59 -36.89,5.74 -2.09,2.15 -2.09,17.22 0.69,20.09 16.01,0 59.15,-2.15 91.17,-2.15 27.14,0 75.85,2.15 96.04,2.15 2.08,-2.15 3.48,-17.94 0.7,-20.81 -16.7,-2.15 -31.32,-3.59 -41.76,-6.46 -19.48,-5.02 -23.66,-10.76 -25.75,-36.59 -1.39,-36.6 -0.7,-91.13 -0.7,-172.93 0,-116.24 0.7,-153.55 1.39,-170.06 0.7,-5.02 3.48,-8.61 5.57,-10.05 4.87,-2.87 22.27,-3.59 29.22,-3.59 79.33,0 111.35,48.08 111.35,114.09 0,40.9 -10.44,73.91 -42.45,92.56 -13.92,7.17 -27.84,10.76 -48.71,10.76 -10.44,0 -20.88,-0.72 -27.14,-2.15 -1.39,0.72 -2.78,3.59 -2.78,6.46 0.7,3.59 4.87,14.35 9.05,17.22zm457.91 192.3c69.59,0 139.88,-32.29 183.02,-94 28.53,-40.9 42.45,-86.1 42.45,-149.25 0,-116.96 -71.68,-223.87 -213.65,-223.87 -71.68,0 -147.53,36.6 -185.81,91.13 -27.84,39.46 -43.15,85.39 -43.15,138.48 0,64.58 18.09,124.85 59.85,172.21 36.19,40.18 90.47,65.29 157.28,65.29zm26.44 -31.57c-35.49,0 -62.63,-8.61 -86.99,-24.39 -61.24,-40.9 -88.38,-122.7 -88.38,-198.04 0,-73.19 23.66,-137.77 74.46,-168.62 17.4,-10.05 38.28,-15.79 62.63,-15.79 36.19,0 66.11,10.77 91.16,28.7 54.98,39.47 80.03,114.09 80.03,191.58 0,66.01 -15.31,125.57 -58.45,161.45 -18.09,15.78 -45.23,25.11 -74.47,25.11zm638.85 -309.26c0.7,3.59 18.79,1.44 21.57,-1.43 0.7,-32.29 6.96,-85.38 11.13,-110.5 -31.31,-2.15 -77.94,-14.35 -137.09,-14.35 -59.15,0 -104.38,12.2 -141.27,33.01 -76.55,42.33 -110.65,119.83 -110.65,197.32 0,149.25 86.29,236.79 241.48,236.79 42.45,0 86.29,-10.76 106.47,-17.94 16.01,-10.05 45.93,-66.02 52.89,-96.87 -1.39,-5.03 -13.22,-11.49 -16.7,-11.49 -18.09,31.58 -34.8,55.97 -52.19,70.32 -17.4,16.5 -46.63,24.39 -76.55,24.39 -123.87,0 -185.81,-96.87 -185.81,-211.67 0,-121.27 57.76,-198.04 158.67,-198.04 33.4,0 63.33,4.31 86.29,15.79 25.75,12.92 34.79,27.27 41.75,84.67zm382.06 309.26c-24.36,-2.87 -36.19,-4.3 -47.32,-7.89 -16.01,-4.3 -21.57,-12.92 -23.66,-38.03 -2.09,-36.59 -2.09,-235.36 -2.09,-340.83 0,-2.15 1.39,-5.02 3.48,-5.74 16,-0.72 64.72,-0.72 97.43,0 13.22,0.72 21.57,6.46 27.14,20.81 5.57,13.64 9.05,38.75 11.13,63.86 2.09,2.87 20.18,2.87 22.27,-0.72 3.48,-38.75 9.05,-96.15 16.01,-121.27 -0.7,-1.43 -4.87,-3.59 -6.96,-3.59 -20.18,9.33 -35.49,10.76 -67.5,10.76l-257.49 0c-25.75,0 -43.85,-4.3 -56.37,-10.76 -1.39,-0.72 -7.66,1.43 -7.66,2.87 -1.39,30.85 -8.35,88.26 -13.92,118.39 1.39,3.59 18.79,7.9 21.57,5.74 9.74,-27.27 18.79,-53.1 27.14,-66.73 8.35,-14.35 17.4,-19.37 29.23,-20.09 26.44,-0.72 77.94,-0.72 89.77,0 2.09,0 4.87,2.87 4.87,5.74 0,119.11 -0.7,272.67 -2.78,328.64 -0.7,33.01 -4.18,47.36 -26.44,51.66 -10.44,2.87 -27.84,5.02 -49.41,7.17 -2.08,2.87 -2.78,17.22 0,20.81 18.1,0 53.59,-2.15 105.08,-2.15 42.45,0 83.51,2.15 103.7,2.15 3.48,-1.44 4.87,-17.22 2.78,-20.81zm302.02 -160.73c8.35,2.87 18.1,3.59 29.92,3.59 23.66,0 48.72,-5.02 73.07,-17.94 36.19,-17.94 73.77,-58.84 73.77,-124.85 0,-47.36 -20.18,-78.21 -43.15,-96.87 -27.14,-22.24 -68.89,-27.26 -92.55,-27.26 -41.06,0 -70.98,1.43 -112.74,1.43 -32.71,0 -70.98,-2.15 -82.11,-2.15 -2.09,2.15 -4.18,16.5 -1.39,20.09 13.92,1.43 25.05,3.59 34.1,5.74 19.48,4.3 23.66,12.92 25.05,38.03 1.4,22.25 0.7,71.04 0.7,153.56 0,77.49 -0.7,136.33 -2.09,160.73 -1.39,28.7 -4.87,36.59 -21.57,41.62 -8.35,2.15 -22.27,3.59 -36.88,5.74 -2.09,2.15 -2.09,17.22 0.7,20.09 16.01,0 59.15,-2.15 91.16,-2.15 27.14,0 75.85,2.15 96.04,2.15 2.08,-2.15 3.48,-17.94 0.69,-20.81 -16.7,-2.15 -31.31,-3.59 -41.75,-6.46 -19.48,-5.02 -23.66,-10.76 -25.75,-36.59 -1.39,-36.6 -0.7,-91.13 -0.7,-172.93 0,-116.24 0.7,-153.55 1.39,-170.06 0.7,-5.02 3.48,-8.61 5.57,-10.05 4.87,-2.87 22.27,-3.59 29.23,-3.59 79.33,0 111.34,48.08 111.34,114.09 0,40.9 -10.44,73.91 -42.45,92.56 -13.92,7.17 -27.84,10.76 -48.71,10.76 -10.44,0 -20.88,-0.72 -27.14,-2.15 -1.39,0.72 -2.78,3.59 -2.78,6.46 0.7,3.59 4.87,14.35 9.04,17.22zm149.62 160.73c-2.78,2.87 -2.78,17.94 0,20.81 13.22,0 34.79,-2.15 74.46,-2.15 38.97,0 74.46,2.15 89.08,2.15 2.08,-2.87 3.48,-17.94 1.39,-20.81 -13.22,-1.43 -25.05,-3.59 -33.4,-5.74 -21.58,-5.74 -22.97,-13.64 -22.27,-25.83 1.4,-17.22 23.66,-77.5 37.58,-116.24 0.7,-2.15 4.18,-6.46 6.96,-6.46l123.18 0c1.39,0 5.57,2.87 6.26,5.02 12.52,32.29 33.4,92.56 41.75,123.41 2.09,6.46 1.39,13.64 -7.66,17.94 -10.44,3.59 -22.96,5.74 -38.28,7.89 -2.78,2.87 -1.39,17.94 0.7,20.81 14.62,-0.72 57.07,-2.15 91.17,-2.15 31.32,0 66.81,1.44 84.9,2.15 2.08,-2.87 4.18,-18.66 1.39,-20.81 -50.1,-6.46 -54.97,-10.05 -75.15,-58.12 -24.36,-59.55 -101.6,-286.54 -115.52,-327.32 -4.87,-13.51 -8.35,-26.43 -11.13,-37.19 -2.09,0 -9.05,0.72 -22.97,0.72 -11.83,0 -20.18,-0.72 -22.96,-0.72 -1.39,10.05 -6.26,25.83 -11.83,40.78 -15.31,45.8 -80.73,228.3 -116.22,315.12 -22.97,55.25 -31.32,60.27 -81.42,66.73zm217.82 -348.24c11.14,30.85 37.58,110.26 51.5,154.63 1.4,2.75 -0.7,5.62 -2.09,5.62 -6.96,0.72 -29.92,0.72 -46.63,0.72 -26.44,0 -48.71,0 -55.67,-0.72 -2.08,-0.72 -2.78,-2.15 -2.78,-4.91 11.83,-37.91 40.37,-118.75 52.19,-154.39 0.7,-1.68 2.78,-0.96 3.48,-0.96zm248.44 -56.45c18.79,2.87 31.32,4.3 41.76,7.89 13.92,3.59 18.09,11.48 19.48,31.57 0.7,12.92 1.39,88.98 1.39,158.58 0,62.42 -0.7,123.42 -0.7,147.81 -2.09,33.01 -4.18,45.92 -24.36,52.38 -9.74,2.15 -20.88,4.3 -37.58,6.46 -2.09,2.87 -2.09,17.94 0.7,20.81 13.92,0 51.5,-2.15 92.55,-2.15 44.54,0 77.25,2.15 90.47,2.15 2.78,-1.44 5.57,-17.22 2.78,-20.81 -20.88,-2.87 -31.32,-5.74 -41.75,-8.61 -17.4,-5.02 -20.18,-15.07 -21.58,-39.46 -0.7,-15.07 -0.7,-97.58 -0.7,-137.05 0,-0.72 0.7,-4.3 2.09,-4.3 6.96,-0.72 64.03,-0.72 118.3,-0.72 38.28,0 97.43,0 110.65,0.72 2.09,0 4.18,2.87 4.18,5.02 0,45.2 0,123.41 -0.7,144.23 -1.39,22.24 -5.57,29.42 -18.09,33.01 -11.14,3.59 -21.57,5.02 -39.67,7.17 -2.78,3.59 -2.78,17.94 0,20.81 18.09,-0.72 52.89,-2.15 88.38,-2.15 35.49,0 72.37,2.15 93.25,2.15 4.18,-2.15 4.87,-17.94 2.78,-20.81 -21.57,-2.15 -34.79,-4.3 -44.54,-7.89 -13.22,-4.3 -17.39,-12.2 -19.48,-32.29 -1.39,-24.4 -1.39,-103.32 -1.39,-165.75 0,-85.38 0,-127.72 1.39,-152.84 1.39,-25.83 4.18,-33.72 19.48,-38.75 9.05,-2.87 20.88,-5.02 36.19,-7.17 2.78,-2.87 2.08,-17.22 0,-20.09 -11.14,0 -51.5,2.15 -86.29,2.15 -36.88,0 -70.98,-2.87 -86.99,-2.87 -3.48,3.59 -4.17,17.94 -0.7,20.81 18.1,2.15 30.62,4.3 41.06,7.89 9.74,3.59 13.22,12.2 13.92,23.68 1.39,25.83 1.39,106.91 1.39,144.23 0,1.43 -2.09,4.3 -4.18,4.3 -6.26,0.72 -32.71,0.72 -109.26,1.43 -100.91,0 -113.44,-0.72 -118.3,-1.43 -2.09,-0.72 -3.48,-4.3 -3.48,-7.17 0,-70.32 -0.7,-106.91 0.7,-133.46 0.7,-22.96 5.57,-28.7 19.48,-33.01 7.66,-2.15 20.88,-4.3 33.41,-6.46 2.79,-2.15 2.79,-16.51 0.7,-20.09 -19.48,0 -40.36,2.15 -86.99,2.15 -37.58,0 -72.38,-2.15 -89.07,-2.15 -2.79,2.87 -3.48,17.22 -0.7,20.09zm894.95 95.43c0.7,3.59 18.79,1.44 21.57,-1.43 0.7,-32.29 6.96,-85.38 11.13,-110.5 -31.31,-2.15 -77.94,-14.35 -137.09,-14.35 -59.15,0 -104.38,12.2 -141.27,33.01 -76.55,42.33 -110.65,119.83 -110.65,197.32 0,149.25 86.29,236.79 241.48,236.79 42.45,0 86.29,-10.76 106.47,-17.94 16,-10.05 45.93,-66.02 52.89,-96.87 -1.39,-5.03 -13.22,-11.49 -16.7,-11.49 -18.09,31.58 -34.8,55.97 -52.19,70.32 -17.4,16.5 -46.63,24.39 -76.55,24.39 -123.87,0 -185.81,-96.87 -185.81,-211.67 0,-121.27 57.76,-198.04 158.67,-198.04 33.41,0 63.33,4.31 86.29,15.79 25.75,12.92 34.79,27.27 41.75,84.67zm382.06 309.26c-24.36,-2.87 -36.19,-4.3 -47.32,-7.89 -16.01,-4.3 -21.57,-12.92 -23.66,-38.03 -2.08,-36.59 -2.08,-235.36 -2.08,-340.83 0,-2.15 1.39,-5.02 3.48,-5.74 16,-0.72 64.72,-0.72 97.43,0 13.22,0.72 21.57,6.46 27.14,20.81 5.57,13.64 9.05,38.75 11.14,63.86 2.09,2.87 20.18,2.87 22.27,-0.72 3.48,-38.75 9.05,-96.15 16.01,-121.27 -0.7,-1.43 -4.88,-3.59 -6.96,-3.59 -20.18,9.33 -35.49,10.76 -67.5,10.76l-257.49 0c-25.75,0 -43.85,-4.3 -56.37,-10.76 -1.39,-0.72 -7.66,1.43 -7.66,2.87 -1.39,30.85 -8.35,88.26 -13.92,118.39 1.39,3.59 18.79,7.9 21.57,5.74 9.74,-27.27 18.79,-53.1 27.14,-66.73 8.35,-14.35 17.4,-19.37 29.23,-20.09 26.44,-0.72 77.94,-0.72 89.77,0 2.09,0 4.87,2.87 4.87,5.74 0,119.11 -0.7,272.67 -2.78,328.64 -0.7,33.01 -4.18,47.36 -26.45,51.66 -10.44,2.87 -27.84,5.02 -49.41,7.17 -2.08,2.87 -2.78,17.22 0,20.81 18.1,0 53.59,-2.15 105.08,-2.15 42.45,0 83.51,2.15 103.69,2.15 3.48,-1.44 4.87,-17.22 2.78,-20.81zm146.83 -404.69c13.22,1.43 30.62,3.59 40.37,6.46 11.83,3.59 18.09,10.05 18.79,30.14 1.39,26.55 0.7,73.19 0.7,162.88 0,76.78 0,139.92 -1.39,162.88 -2.09,25.83 -6.96,32.29 -22.27,36.6 -11.83,2.87 -32.01,4.3 -44.54,5.74 -3.48,2.15 -2.78,18.66 0.7,20.81 45.93,-1.44 127.35,2.15 158.67,2.15 36.88,0 75.85,-3.59 107.87,-17.94 52.89,-23.68 86.99,-63.86 86.99,-123.42 0,-63.14 -43.84,-97.58 -98.13,-110.5 -1.39,-0.72 -1.39,-2.15 0,-2.87 40.37,-17.22 67.51,-50.95 67.51,-91.85 0,-84.67 -75.15,-100.45 -122.48,-100.45 -45.23,0 -71.68,1.43 -112.04,1.43 -40.37,0 -64.03,-2.15 -80.03,-2.15 -2.78,1.43 -3.48,17.94 -0.7,20.09zm150.32 5.74c66.11,0 103.69,28.7 103.69,91.13 0,27.99 -10.44,53.1 -32.71,66.73 -8.34,5.02 -22.26,8.61 -56.37,8.61 -19.48,0 -35.49,-0.72 -43.15,-1.44 -1.39,0 -3.48,-2.15 -3.48,-3.59 0,-50.95 1.39,-127 2.09,-147.81 0,-3.59 2.78,-10.05 5.57,-11.48 6.96,-1.43 16.7,-2.15 24.36,-2.15zm39.67 394.65c-16,0 -41.76,-2.15 -53.59,-10.05 -8.35,-5.02 -14.62,-17.94 -16,-27.27 -2.09,-29.42 -2.09,-116.96 -2.09,-162.16 0,-1.44 2.09,-2.87 3.48,-2.87 4.87,-1.44 22.97,-1.44 33.41,-1.44 78.64,0 125.96,37.31 125.96,105.48 0,66.73 -35.49,98.3 -91.16,98.3zm443.99 35.88c69.59,0 139.88,-32.29 183.03,-94 28.53,-40.9 42.45,-86.1 42.45,-149.25 0,-116.96 -71.68,-223.87 -213.65,-223.87 -71.68,0 -147.53,36.6 -185.81,91.13 -27.83,39.46 -43.14,85.39 -43.14,138.48 0,64.58 18.09,124.85 59.85,172.21 36.19,40.18 90.47,65.29 157.28,65.29zm26.44 -31.57c-35.49,0 -62.63,-8.61 -86.99,-24.39 -61.24,-40.9 -88.38,-122.7 -88.38,-198.04 0,-73.19 23.66,-137.77 74.46,-168.62 17.4,-10.05 38.28,-15.79 62.63,-15.79 36.19,0 66.11,10.77 91.17,28.7 54.97,39.47 80.03,114.09 80.03,191.58 0,66.01 -15.31,125.57 -58.45,161.45 -18.09,15.78 -45.24,25.11 -74.46,25.11z"/>
   <path class="fil2" d="M2560.53 2660.9l31.42 -8.28c2.39,12.48 8.79,24.96 19.15,37.45 10.42,12.48 24.15,18.72 41.32,18.72 17.46,0 31.26,-4.62 41.38,-13.92 10.07,-9.24 15.13,-20.46 15.13,-33.6 0,-14.16 -5.3,-25.51 -15.95,-33.84 -10.59,-8.41 -25.08,-12.61 -43.36,-12.61l-15.77 0 0 -29.88c15.14,0 26.72,-0.9 34.74,-2.7 8.04,-1.8 15.13,-6.42 21.3,-13.86 6.17,-7.38 9.25,-15.84 9.25,-25.32 0,-11.16 -4.19,-20.94 -12.63,-29.22 -8.38,-8.28 -19.79,-12.42 -34.11,-12.42 -12.57,0 -23.28,3.24 -32.12,9.78 -8.85,6.54 -14.96,15.18 -18.39,25.92 -3.37,10.74 -5.07,18.78 -5.07,24.06l-31.77 -7.56c7.8,-54.73 37.01,-82.09 87.58,-82.09 24.39,0 43.65,7.02 57.91,21 14.26,13.98 21.42,30.3 21.42,49.02 0,24.01 -11,42.61 -33,55.81 12.74,3.66 23.39,11.1 32.01,22.26 8.55,11.22 12.86,24.6 12.86,40.2 0,22.2 -8.32,40.74 -24.97,55.69 -16.65,14.94 -38.7,22.44 -66.17,22.44 -47.26,0 -77.98,-25.68 -92.18,-77.05zm322.24 72.73l0 -257.79 180.53 0 0 30.25 -147.35 0 0 79.21 137.92 0 0 30.24 -137.92 0 0 87.85 153.29 0 0 30.24 -186.46 0zm328.52 0l0 -257.79 49.59 0 59.13 182.48c5.47,16.98 9.43,29.7 11.93,38.16 2.85,-9.36 7.34,-23.16 13.39,-41.35l60.18 -179.3 44.29 0 0 257.79 -31.77 0 0 -215.66 -72.98 215.66 -29.8 0 -72.16 -219.62 0 219.62 -31.78 0zm407.09 -257.79l156.08 0 0 257.79 -33.17 0 0 -227.54 -89.74 0 0 132.79c0,27 -1.22,46.74 -3.67,59.29 -2.44,12.6 -7.62,22.32 -15.48,29.34 -7.86,6.96 -17.87,10.44 -29.91,10.44 -7.34,0 -16.12,-1.56 -26.37,-4.68l5.94 -30.24c5.41,2.88 10.07,4.32 13.91,4.32 7.45,0 13.1,-2.88 16.82,-8.7 3.73,-5.82 5.59,-19.5 5.59,-41.11l0 -181.7zm505.33 257.79l0 -257.79 -110.81 0c-22.29,0 -39.17,2.34 -50.75,6.96 -11.58,4.62 -20.84,12.78 -27.76,24.48 -6.92,11.7 -10.42,24.66 -10.42,38.83 0,18.3 5.76,33.72 17.22,46.26 11.47,12.54 29.16,20.46 53.14,23.88 -8.79,4.32 -15.42,8.64 -19.96,12.84 -9.66,9.12 -18.8,20.58 -27.36,34.33l-43.24 70.2 41.32 0 33.06 -53.64c9.61,-15.54 17.58,-27.36 23.8,-35.59 6.28,-8.22 11.87,-13.92 16.82,-17.22 4.89,-3.24 9.95,-5.52 15.07,-6.84 3.72,-0.78 9.83,-1.2 18.39,-1.2l38.29 0 0 114.49 33.17 0zm-33.17 -144.02l-71 0c-15.13,0 -26.88,-1.62 -35.38,-4.86 -8.5,-3.18 -14.96,-8.34 -19.32,-15.48 -4.42,-7.08 -6.64,-14.76 -6.64,-23.1 0,-12.18 4.25,-22.26 12.81,-30.13 8.55,-7.86 22.05,-11.76 40.5,-11.76l79.03 0 0 85.33z"/>
  </g>
 </g>
</svg>
